<svg width="428" height="428" viewBox="0 0 428 428" fill="none" xmlns="http://www.w3.org/2000/svg">
<g clip-path="url(#clip0_63_528)">
<path d="M125.8 243.7C138.1 243.7 150.1 239.6 159.8 232.1L81.8 154.1C63 178.4 67.5 213.4 91.8 232.2C101.6 239.6 113.5 243.7 125.8 243.7Z" fill="#23644C"/>
<path d="M357.8 188C357.8 175.7 353.7 163.7 346.2 154L268.2 232C292.5 250.8 327.4 246.3 346.2 222C353.7 212.3 357.8 200.3 357.8 188Z" fill="#23644C"/>
<path d="M397.1 103.1L362.6 137.6C390.4 170.9 386 220.5 352.7 248.3C323.5 272.7 281.1 272.7 251.9 248.3L214 286.2L176.2 248.4C142.9 276.2 93.3 271.8 65.5 238.5C41.1 209.3 41.1 166.9 65.5 137.7L47.8 120L31 103.1C10.7 136.5 0 174.9 0 214C0 332.2 95.8 428 214 428C332.2 428 428 332.2 428 214C428.1 174.9 417.3 136.5 397.1 103.1Z" fill="#23644C"/>
<path d="M368.8 66.3001C287.3 -19.1999 151.9 -22.3999 66.4 59.1001C63.9 61.5001 61.5 63.9001 59.2 66.3001C53.9 71.9001 48.9 77.7001 44.2 83.8001L214 253.7L383.8 83.8001C379.2 77.7001 374.1 71.9001 368.8 66.3001ZM214 28.0001C264 28.0001 310.6 47.3001 345.6 82.5001L214 214.1L82.4 82.5001C117.4 47.3001 164 28.0001 214 28.0001Z" fill="#23644C"/>
</g>
<defs>
<clipPath id="clip0_63_528">
<rect width="428" height="428" fill="white"/>
</clipPath>
</defs>
</svg>
