<svg width="621" height="116" viewBox="0 0 621 116" fill="none" xmlns="http://www.w3.org/2000/svg">
<g clip-path="url(#clip0_95_528)">
<path d="M61.866 53.2863L85.6234 29.5124C87.6715 27.8728 88.4907 25.4135 88.4907 22.9541V3.6891C88.4907 2.45942 88.0811 1.63963 87.2619 1.22974L41.795 46.3181C40.1566 47.9577 38.9277 50.417 38.9277 52.8764C38.9277 55.3357 39.747 57.7951 41.795 59.4347L73.7447 91.4064C75.7928 93.046 77.8408 94.2757 80.2985 94.2757C82.7561 94.2757 85.2138 93.4559 86.8523 91.4064C90.5388 87.7174 90.5388 81.569 86.8523 77.8799L61.866 53.2863Z" fill="#008C62"/>
<path d="M84.8042 0H13.5318C7.38762 0 3.2915 4.50883 3.2915 10.2473V84.8481C3.2915 90.1767 7.38762 94.2756 12.7126 94.2756C18.0375 94.2756 22.1336 90.1767 22.1336 84.8481V18.4452H69.6485L86.8522 1.22968C86.8522 0.409894 86.033 0 84.8042 0Z" fill="black"/>
<path d="M151.571 59.0248V90.9965H136.825V5.73855H175.328C195.399 5.73855 205.639 15.1661 205.639 29.9223C205.639 42.2191 196.628 51.2368 183.52 53.6962C187.207 54.106 190.484 55.3357 192.941 56.9753C197.857 60.2545 200.314 65.993 203.182 75.4205L207.687 90.5866H192.122L188.026 75.4205C184.34 61.4841 181.063 58.6149 166.317 58.6149H151.571V59.0248ZM151.571 18.8552V48.3675H171.232C183.93 48.3675 191.303 42.629 191.303 33.2015C191.303 24.1838 185.568 18.8552 172.051 18.8552H151.571ZM246.191 92.2262C223.662 92.2262 212.193 77.8799 212.193 59.0248C212.193 40.1696 224.891 24.5937 245.372 24.5937C266.671 24.5937 276.502 39.7598 276.502 57.3852V62.3039H226.12C227.349 73.3711 233.903 79.9294 245.781 79.9294C254.383 79.9294 259.299 76.2403 262.985 69.682L275.273 76.2403C269.539 85.6679 260.527 92.2262 246.191 92.2262ZM226.53 53.2863H262.575C262.166 43.4488 256.841 36.4806 245.372 36.4806C234.722 36.4806 228.168 42.629 226.53 53.2863ZM314.596 25.0036C325.246 25.0036 332.209 29.5124 336.305 38.94V25.8234H350.642V116H335.896V77.47C331.39 86.4877 323.607 91.8163 313.367 91.8163C297.802 91.8163 285.514 80.7492 285.514 58.6149C285.514 36.0707 299.85 25.0036 314.596 25.0036ZM337.534 58.205C337.534 45.9082 331.8 36.4806 319.102 36.4806C306.813 36.4806 300.669 45.0884 300.669 58.205C300.669 71.3216 306.813 79.5195 319.102 79.5195C331.8 79.5195 337.534 70.5018 337.534 58.205ZM425.191 90.9965H410.855V75.8304C406.349 86.8976 398.566 92.6361 388.326 92.6361C372.761 92.6361 364.978 81.9788 364.978 66.4029V25.8234H379.315V61.894C379.315 72.9612 383.001 79.9294 394.061 79.9294C403.891 79.9294 410.035 71.3216 410.035 57.7951V25.8234H424.781V90.9965H425.191ZM470.658 92.2262C448.129 92.2262 436.66 77.8799 436.66 59.0248C436.66 40.5795 449.358 25.0036 470.248 25.0036C491.548 25.0036 501.379 40.1696 501.379 57.7951V62.7138H450.587C451.816 73.781 458.37 80.3393 470.248 80.3393C478.85 80.3393 483.765 76.6502 487.452 70.0919L499.74 76.6502C494.006 85.6679 484.994 92.2262 470.658 92.2262ZM450.997 53.2863H487.042C486.633 43.4488 481.308 36.4806 469.839 36.4806C459.189 36.4806 452.635 42.629 450.997 53.2863ZM518.173 69.2721C523.498 76.2403 530.052 79.9294 539.473 79.9294C548.484 79.9294 552.171 75.4205 552.171 70.9117C552.171 64.3534 541.93 63.9435 530.461 61.894C518.992 60.2545 509.981 56.1555 509.981 44.2686C509.981 32.7916 519.402 23.7739 535.786 23.7739C548.894 23.7739 558.315 27.8728 566.097 36.8905L555.038 46.3181C550.123 39.3499 543.978 35.6608 534.967 35.6608C525.955 35.6608 522.679 39.7598 522.679 43.8587C522.679 49.5972 530.461 50.8269 541.111 52.4665C553.399 54.5159 564.869 57.3852 564.869 70.5018C564.869 82.7986 555.038 91.4064 539.063 91.4064C524.317 91.4064 513.667 86.4877 507.523 78.2898L518.173 69.2721ZM617.708 89.3569C614.022 90.9965 610.745 92.2262 605.42 92.2262C591.084 92.2262 585.349 84.8481 585.349 70.0919V37.7103H570.603V25.4135H585.759V9.0177L599.276 0.819824V25.4135H617.708V37.7103H599.276V68.0424C599.276 76.2403 602.553 79.1096 609.107 79.1096C612.383 79.1096 614.432 78.6997 617.708 77.0601V89.3569Z" fill="black"/>
</g>
<defs>
<clipPath id="clip0_95_528">
<rect width="621" height="116" fill="white"/>
</clipPath>
</defs>
</svg>
