<svg width="2887" height="308" viewBox="0 0 2887 308" fill="none" xmlns="http://www.w3.org/2000/svg">
<path d="M1137.92 302.428H1299.45V5.71661H1137.92V302.428ZM1016.5 5.64428H1112.25V43.9606H1023.7C1009.08 43.9606 997.131 48.1375 987.826 56.4734C978.501 64.8094 973.852 75.7672 973.852 89.3289C973.852 102.89 978.501 114.282 987.826 122.619C997.131 130.954 1009.1 135.131 1023.7 135.131H1112.25V302.446H918.967V264.057H1020.29C1036.05 264.057 1048.89 259.682 1058.75 250.912C1068.64 242.16 1073.59 230.986 1073.59 217.424C1073.59 203.861 1068.64 192.832 1058.75 184.351C1048.87 175.871 1036.05 171.639 1020.29 171.639L1007.44 171.856C966.086 171.856 932.501 138.928 932.244 98.1346L932.189 89.1842V88.8588C932.189 42.9118 969.955 5.66237 1016.52 5.66237L1016.5 5.64428ZM1417.54 5.64428H1510.31V43.9606H1424.74C1410.14 43.9606 1398.17 48.1375 1388.87 56.4734C1379.55 64.8094 1374.9 75.7672 1374.9 89.3289C1374.9 102.89 1379.55 114.282 1388.87 122.619C1398.17 130.954 1410.16 135.131 1424.74 135.131H1510.31V217.659C1510.31 264.491 1471.83 302.446 1424.36 302.446H1325.91V264.057H1418.35C1434.11 264.057 1446.95 259.682 1456.82 250.912C1466.7 242.16 1471.65 230.986 1471.65 217.424C1471.65 203.861 1466.7 192.832 1456.82 184.351C1446.93 175.871 1434.11 171.856 1418.35 171.856H1333.75L1333.22 89.1842V88.8588C1333.22 42.9118 1370.98 5.66237 1417.55 5.66237L1417.54 5.64428ZM150.408 5.64428H258.714V43.9606H153.43C133.67 43.9606 115.392 48.8427 98.6363 58.5891C81.8793 68.3354 68.6203 81.6259 58.8777 98.4426C49.1349 115.258 44.2635 133.558 44.2635 153.34C44.2635 173.122 49.1349 193.103 58.8777 209.775C68.6203 226.465 81.861 239.664 98.6363 249.411C115.392 259.157 133.67 264.04 153.43 264.04H217.454V171.838H113.451V134.534H258.714V302.428H150.518C67.4116 302.482 0 236.03 0 154.045C0 72.0784 67.3384 5.64428 150.408 5.64428ZM574.181 143.412V302.537H535.85V143.919C535.85 88.7141 490.488 43.9606 434.522 43.9606C378.557 43.9606 333.194 88.7141 333.194 143.919V302.537H294.535V5.82511H434.723C511.751 5.82511 574.199 67.4313 574.199 143.431L574.181 143.412ZM1270.84 95.1875C1270.84 123.649 1247.47 146.704 1218.67 146.704C1189.86 146.704 1166.49 123.631 1166.49 95.1875C1166.49 66.7442 1189.86 43.6712 1218.67 43.6712C1247.47 43.6712 1270.84 66.7442 1270.84 95.1875ZM1614.71 153.792V154.136C1614.71 236.084 1682.05 302.428 1765.12 302.428H1828.68V264.04H1766.14C1703.73 264.04 1653.28 213.463 1654.62 151.586C1655.92 91.4264 1707.2 43.9425 1768.2 43.9425H1828.68V5.82511H1764.7C1681.85 5.82511 1614.69 72.0785 1614.69 153.81L1614.71 153.792ZM2747.55 5.82511H2607.36V302.428H2646.01V143.919C2646.01 88.7141 2691.38 43.9606 2747.35 43.9606C2803.31 43.9606 2848.67 88.7141 2848.67 143.919V302.428H2887V143.412C2887 67.4132 2824.55 5.80702 2747.53 5.80702L2747.55 5.82511ZM2047.79 105.296C2047.79 113.486 2044.84 120.413 2038.98 126.072C2033.1 131.732 2026.16 134.553 2018.14 134.553H1928.77C1920.45 134.553 1913.44 131.732 1907.71 126.072C1901.97 120.43 1899.12 113.505 1899.12 105.296V5.82511H1860.46V302.428H1899.12V201.095C1899.12 192.904 1901.97 185.978 1907.71 180.319C1913.44 174.677 1920.45 171.838 1928.77 171.838H2018.14C2026.16 171.838 2033.1 174.659 2038.98 180.319C2044.84 185.978 2047.79 192.904 2047.79 201.095V302.428H2086.03V5.82511H2047.79V105.296ZM2414.07 5.82511V302.428H2575.6V5.82511H2414.07ZM2494.84 146.722C2466.01 146.722 2442.66 123.649 2442.66 95.2056C2442.66 66.7623 2466.03 43.6893 2494.84 43.6893C2523.64 43.6893 2547.01 66.7623 2547.01 95.2056C2547.01 123.649 2523.64 146.722 2494.84 146.722ZM2272.53 21.6109C2267.42 10.4361 2260.2 4.83059 2250.85 4.83059C2241.49 4.83059 2234.27 10.418 2229.17 21.6109L2100.39 302.428H2400.03L2272.53 21.6109ZM2250.85 253.823C2222.02 253.823 2198.67 230.75 2198.67 202.307C2198.67 173.863 2222.04 150.79 2250.85 150.79C2279.65 150.79 2303.02 173.863 2303.02 202.307C2303.02 230.75 2279.65 253.823 2250.85 253.823ZM887.413 78.4976C873.623 55.5875 855.017 37.5775 831.63 24.4679C808.226 11.3764 782.734 4.8125 755.154 4.8125C727.574 4.8125 703.125 11.3764 679.3 24.4679C655.474 37.5775 636.867 55.5875 623.517 78.4976C610.13 101.426 603.464 126.379 603.464 153.395C603.464 180.409 610.148 205.381 623.517 228.291C636.886 251.219 655.492 269.428 679.3 282.936C703.125 296.443 728.379 303.188 755.154 303.188C781.928 303.188 808.208 296.443 831.63 282.936C855.017 269.428 873.623 251.219 887.413 228.291C901.203 205.381 908.089 180.391 908.089 153.395C908.089 126.397 901.203 101.408 887.413 78.4976ZM755.794 205.76C726.897 205.76 703.473 182.615 703.473 154.064C703.473 125.511 726.897 102.366 755.794 102.366C784.693 102.366 808.117 125.511 808.117 154.064C808.117 182.615 784.693 205.76 755.794 205.76Z" fill="#3E6957"/>
</svg>
